<svg width="80" height="80" viewBox="0 0 80 80" fill="none" xmlns="http://www.w3.org/2000/svg">
<rect x="1" y="1" width="78" height="78" rx="38" fill="url(#paint0_linear_32_27)"/>
<rect x="1" y="1" width="78" height="78" rx="38" stroke="url(#paint1_linear_32_27)" stroke-width="2"/>
<path d="M53.9698 26.3702C53.9996 26.2602 54.0095 26.1501 53.9897 26.0301C53.9897 26.0001 53.9797 25.9801 53.9797 25.9501C53.9698 25.9101 53.9698 25.8601 53.9598 25.8201C53.9399 25.77 53.9201 25.73 53.9002 25.68C53.8902 25.66 53.8803 25.64 53.8703 25.61C53.8107 25.51 53.7411 25.43 53.6516 25.3599C53.6317 25.3399 53.6118 25.3299 53.5919 25.3199C53.5124 25.2599 53.4229 25.2199 53.3235 25.1799C53.3036 25.1699 53.2936 25.1599 53.2837 25.1599C53.2737 25.1599 53.2737 25.1599 53.2638 25.1599C53.2539 25.1599 53.2439 25.1499 53.234 25.1499L45.4385 23.3694L41.3519 16.4576C40.9939 15.8475 39.9996 15.8475 39.6417 16.4576L35.555 23.3694L27.7596 25.1499C27.7496 25.1499 27.7397 25.1599 27.7298 25.1599C27.7198 25.1599 27.7198 25.1599 27.7099 25.1599C27.69 25.1599 27.68 25.1799 27.6701 25.1799C27.5707 25.2099 27.4812 25.2599 27.4016 25.3199C27.3817 25.3399 27.3619 25.3499 27.342 25.3599C27.2525 25.43 27.1829 25.52 27.1232 25.61C27.1133 25.63 27.1033 25.65 27.0934 25.68C27.0735 25.72 27.0437 25.77 27.0337 25.8201C27.0238 25.8601 27.0138 25.9101 27.0138 25.9501C27.0138 25.9801 27.0039 26.0001 27.0039 26.0301C26.994 26.1401 27.0039 26.2602 27.0238 26.3702V26.4002L35.207 55.9979H33.2084C31.1999 55.9979 29.5593 57.6483 29.5593 59.6689V62.9997C29.5593 63.5499 30.0067 64 30.5536 64H50.4399C50.9868 64 51.4343 63.5499 51.4343 62.9997V59.6689C51.4343 57.6483 49.7936 55.9979 47.7851 55.9979H45.7865L53.9698 26.4002C53.9698 26.3902 53.9698 26.3802 53.9698 26.3702ZM48.4911 32.8319L50.8874 30.0912L48.8988 37.273L48.4911 32.8319ZM36.4101 25.2299C36.6786 25.1699 36.9073 24.9998 37.0465 24.7698L40.4968 18.9383L43.9471 24.7698C44.0863 25.0098 44.315 25.1699 44.5834 25.2299L51.1658 26.7303L46.7212 31.8316C46.5422 32.0417 46.4527 32.3117 46.4826 32.5818L47.099 39.3436L40.8945 36.6629C40.7752 36.6129 40.6459 36.5829 40.5067 36.5829C40.3675 36.5829 40.2383 36.6129 40.1189 36.6629L33.9144 39.3436L34.5309 32.5818C34.5508 32.3117 34.4712 32.0417 34.2922 31.8316L29.8476 26.7303L36.4101 25.2299ZM32.0948 37.273L30.1062 30.0912L32.5025 32.8319L32.0948 37.273ZM33.3377 41.7642L39.5025 39.1035V55.9879H37.2752L33.3377 41.7642ZM49.4456 59.6589V61.9895H31.5479V59.6589C31.5479 58.7386 32.2937 57.9884 33.2084 57.9884H36.5195H44.474H47.7851C48.6999 57.9884 49.4456 58.7386 49.4456 59.6589ZM41.4911 55.9879V39.1035L47.6559 41.7642L43.7184 55.9879H41.4911Z" fill="white" stroke="white" stroke-width="0.5"/>
<defs>
<linearGradient id="paint0_linear_32_27" x1="0" y1="0" x2="80" y2="80" gradientUnits="userSpaceOnUse">
<stop stop-color="#4EA512"/>
<stop offset="1" stop-color="#6FCB2A"/>
</linearGradient>
<linearGradient id="paint1_linear_32_27" x1="0" y1="0" x2="80" y2="80" gradientUnits="userSpaceOnUse">
<stop stop-color="#4EA512"/>
<stop offset="1" stop-color="#6FCB2A"/>
</linearGradient>
</defs>
</svg>
