<svg width="48" height="48" viewBox="0 0 48 48" fill="none" xmlns="http://www.w3.org/2000/svg">
<rect x="1" y="1" width="46" height="46" rx="15" fill="url(#paint0_linear_59_625)"/>
<rect x="1" y="1" width="46" height="46" rx="15" stroke="url(#paint1_linear_59_625)" stroke-width="2"/>
<g clip-path="url(#clip0_59_625)">
<path d="M20.1288 21.9355C16.8559 21.9355 14.1934 24.5981 14.1934 27.871C14.1934 31.1439 16.8559 33.8065 20.1288 33.8065C23.4017 33.8065 26.0643 31.1439 26.0643 27.871C26.0643 24.5981 23.4017 21.9355 20.1288 21.9355ZM24.5892 30.6021C23.7725 31.0985 22.8368 31.3625 21.8746 31.3625C18.9868 31.3625 16.6374 29.0131 16.6374 26.1253C16.6374 25.1631 16.9013 24.2273 17.3975 23.411C17.5315 23.3286 17.6691 23.2522 17.8109 23.182C17.7302 23.5744 17.6848 23.9742 17.6848 24.3796C17.6848 27.6525 20.3474 30.3151 23.6203 30.3151C24.0257 30.3151 24.4258 30.2697 24.8182 30.189C24.7477 30.3304 24.6716 30.468 24.5892 30.6021ZM18.6115 22.8597C18.8768 22.7791 19.1519 22.7229 19.4333 22.6855C19.4613 25.9169 22.083 28.5386 25.3144 28.5665C25.2767 28.8476 25.2204 29.1231 25.1401 29.3884C24.6492 29.5372 24.1395 29.6168 23.6203 29.6168C20.7325 29.6168 18.3831 27.2674 18.3831 24.3796C18.3831 23.8607 18.4624 23.3506 18.6115 22.8597ZM25.366 27.871C22.4782 27.871 20.1288 25.5216 20.1288 22.6338C23.0166 22.6338 25.366 24.9832 25.366 27.871ZM14.8917 27.871C14.8917 26.5565 15.3819 25.3568 16.1845 24.4365C16.0232 24.9808 15.9391 25.5489 15.9391 26.1253C15.9391 29.3982 18.6017 32.0608 21.8746 32.0608C22.451 32.0608 23.0191 31.9766 23.5634 31.8153C22.643 32.618 21.4434 33.1082 20.1288 33.1082C17.2411 33.1082 14.8917 30.7588 14.8917 27.871Z" fill="white" stroke="white" stroke-width="0.5"/>
<path d="M28.2225 12C25.8952 12 23.7074 12.9062 22.0622 14.5517L15.2098 21.4041L15.2156 21.4099C13.2662 22.8964 12 25.2356 12 27.871C12 32.3532 15.6465 36 20.129 36C23.225 36 25.9208 34.2592 27.2934 31.7059L33.7223 25.277C35.191 23.8084 36 21.8551 36 19.7775C36 15.4889 32.5111 12 28.2225 12ZM20.129 35.2258C16.0734 35.2258 12.7742 31.9266 12.7742 27.871C12.7742 23.8154 16.0734 20.5161 20.129 20.5161C24.1846 20.5161 27.4839 23.8154 27.4839 27.871C27.4839 31.9266 24.1846 35.2258 20.129 35.2258ZM33.1746 24.7297L27.9867 29.9172C28.1578 29.2622 28.2581 28.579 28.2581 27.871C28.2581 23.3888 24.6116 19.7419 20.129 19.7419C19.2213 19.7419 18.3507 19.8979 17.5347 20.1739L22.6095 15.0991C24.1088 13.5999 26.1023 12.7742 28.2225 12.7742C32.0841 12.7742 35.2258 15.9159 35.2258 19.7775C35.2258 21.6484 34.4973 23.407 33.1746 24.7297Z" fill="white" stroke="white" stroke-width="0.5"/>
</g>
<defs>
<linearGradient id="paint0_linear_59_625" x1="0" y1="0" x2="48" y2="48" gradientUnits="userSpaceOnUse">
<stop stop-color="#4EA512"/>
<stop offset="1" stop-color="#6FCB2A"/>
</linearGradient>
<linearGradient id="paint1_linear_59_625" x1="0" y1="0" x2="48" y2="48" gradientUnits="userSpaceOnUse">
<stop stop-color="#4EA512"/>
<stop offset="1" stop-color="#6FCB2A"/>
</linearGradient>
<clipPath id="clip0_59_625">
<rect width="24" height="24" fill="white" transform="translate(12 12)"/>
</clipPath>
</defs>
</svg>
