<svg width="48" height="48" viewBox="0 0 48 48" fill="none" xmlns="http://www.w3.org/2000/svg">
<rect x="1" y="1" width="46" height="46" rx="15" fill="url(#paint0_linear_59_619)"/>
<rect x="1" y="1" width="46" height="46" rx="15" stroke="url(#paint1_linear_59_619)" stroke-width="2"/>
<g clip-path="url(#clip0_59_619)">
<path d="M33.375 27C33.375 26.9005 33.3355 26.8052 33.2652 26.7348C33.1948 26.6645 33.0995 26.625 33 26.625H30.75C30.6505 26.625 30.5552 26.6645 30.4848 26.7348C30.4145 26.8052 30.375 26.9005 30.375 27V27.375H29.25C29.1505 27.375 29.0552 27.4145 28.9848 27.4848C28.9145 27.5552 28.875 27.6505 28.875 27.75V28.125H25.2C25.1251 28.125 25.0519 28.1475 24.9899 28.1894C24.9279 28.2314 24.8799 28.291 24.852 28.3605L24.402 29.4855C24.3739 29.5556 24.3676 29.6326 24.384 29.7064L24.6139 30.7406L23.5807 30.1343L23.1994 28.4186C23.1809 28.3354 23.1345 28.2609 23.068 28.2075C23.0014 28.1541 22.9187 28.125 22.8334 28.125H19.125V27.75C19.125 27.6505 19.0855 27.5552 19.0152 27.4848C18.9448 27.4145 18.8495 27.375 18.75 27.375H17.625V27C17.625 26.9005 17.5855 26.8052 17.5152 26.7348C17.4448 26.6645 17.3495 26.625 17.25 26.625H15C14.9005 26.625 14.8052 26.6645 14.7348 26.7348C14.6645 26.8052 14.625 26.9005 14.625 27V27.375H12.375V28.125H14.625V34.125H12.375V34.875H14.625V35.25C14.625 35.3495 14.6645 35.4448 14.7348 35.5152C14.8052 35.5855 14.9005 35.625 15 35.625H17.25C17.3495 35.625 17.4448 35.5855 17.5152 35.5152C17.5855 35.4448 17.625 35.3495 17.625 35.25V34.875H18.75C18.8495 34.875 18.9448 34.8355 19.0152 34.7652C19.0855 34.6948 19.125 34.5995 19.125 34.5H28.875C28.875 34.5995 28.9145 34.6948 28.9848 34.7652C29.0552 34.8355 29.1505 34.875 29.25 34.875H30.375V35.25C30.375 35.3495 30.4145 35.4448 30.4848 35.5152C30.5552 35.5855 30.6505 35.625 30.75 35.625H33C33.0995 35.625 33.1948 35.5855 33.2652 35.5152C33.3355 35.4448 33.375 35.3495 33.375 35.25V34.875H35.625V34.125H33.375V28.125H35.625V27.375H33.375V27ZM16.875 34.875H15.375V27.375H16.875V34.875ZM18.375 34.125H17.625V28.125H18.375V34.125ZM25.4539 28.875H28.875V30H27.375C27.2756 30 27.1802 30.0395 27.1099 30.1099L26.0947 31.125H25.4674L25.1411 29.6565L25.4539 28.875ZM28.875 30.75V33.5947L26.7803 31.5L27.5303 30.75H28.875ZM19.125 28.875H22.5323L22.884 30.4564C22.8952 30.5066 22.9166 30.554 22.947 30.5957C22.9773 30.6373 23.0158 30.6722 23.0602 30.6982L24.9769 31.8232C25.0343 31.8572 25.0999 31.8751 25.1666 31.875H26.0947L27.9697 33.75H19.125V28.875ZM29.625 34.125V28.125H30.375V34.125H29.625ZM32.625 34.875H31.125V27.375H32.625V34.875Z" fill="white" stroke="white" stroke-width="0.5"/>
<path d="M22.6646 26.4922L23.7259 27.6307C23.761 27.6682 23.8034 27.6982 23.8506 27.7187C23.8977 27.7392 23.9486 27.7498 24 27.7498C24.0514 27.7498 24.1023 27.7392 24.1495 27.7187C24.1966 27.6982 24.2391 27.6682 24.2741 27.6307L25.3354 26.4922C27.0775 26.1597 28.6331 25.1896 29.6979 23.7712C30.7627 22.3529 31.2603 20.5884 31.0934 18.8227C30.9264 17.0571 30.107 15.4171 28.7952 14.2235C27.4834 13.0299 25.7736 12.3684 24 12.3684C22.2265 12.3684 20.5166 13.0299 19.2049 14.2235C17.8931 15.4171 17.0736 17.0571 16.9066 18.8227C16.7397 20.5884 17.2373 22.3529 18.3021 23.7712C19.367 25.1896 20.9225 26.1597 22.6646 26.4922ZM24 13.1249C25.5962 13.1243 27.1345 13.7229 28.3105 14.8022C29.4866 15.8815 30.2147 17.3628 30.3508 18.9533C30.4869 20.5437 30.0211 22.1272 29.0455 23.3906C28.07 24.654 26.6557 25.5053 25.0826 25.7759C25.0019 25.7893 24.9277 25.8289 24.8715 25.8884L24 26.8248L23.1285 25.8899C23.0723 25.8304 22.9982 25.7908 22.9174 25.7774C21.3424 25.5087 19.9258 24.6581 18.9485 23.3942C17.9711 22.1302 17.5042 20.5452 17.6405 18.9533C17.7767 17.3614 18.506 15.8787 19.6839 14.7992C20.8618 13.7197 22.4023 13.1221 24 13.1249Z" fill="white" stroke="white" stroke-width="0.5"/>
<path d="M26.5 20.5H24C23.725 20.5 23.5 20.275 23.5 20L23.5 15.5C23.5 15.225 23.725 15 24 15C24.275 15 24.5 15.225 24.5 15.5V19.5H26.5C26.775 19.5 27 19.725 27 20C27 20.275 26.775 20.5 26.5 20.5Z" fill="white" stroke="white" stroke-width="0.5"/>
</g>
<defs>
<linearGradient id="paint0_linear_59_619" x1="0" y1="0" x2="48" y2="48" gradientUnits="userSpaceOnUse">
<stop stop-color="#4EA512"/>
<stop offset="1" stop-color="#6FCB2A"/>
</linearGradient>
<linearGradient id="paint1_linear_59_619" x1="0" y1="0" x2="48" y2="48" gradientUnits="userSpaceOnUse">
<stop stop-color="#4EA512"/>
<stop offset="1" stop-color="#6FCB2A"/>
</linearGradient>
<clipPath id="clip0_59_619">
<rect width="24" height="24" fill="white" transform="translate(12 12)"/>
</clipPath>
</defs>
</svg>
