<svg width="48" height="48" viewBox="0 0 48 48" fill="none" xmlns="http://www.w3.org/2000/svg">
<rect x="1" y="1" width="46" height="46" rx="15" fill="url(#paint0_linear_59_614)"/>
<rect x="1" y="1" width="46" height="46" rx="15" stroke="url(#paint1_linear_59_614)" stroke-width="2"/>
<g clip-path="url(#clip0_59_614)">
<path d="M34.5 20.4698V16.125C34.4999 16.051 34.478 15.9786 34.437 15.9169L33.687 14.7919C33.6566 14.7463 33.6165 14.7079 33.5696 14.6794C33.5227 14.6509 33.4701 14.6331 33.4156 14.6272C33.3611 14.6212 33.3059 14.6273 33.254 14.645C33.2021 14.6627 33.1547 14.6916 33.1151 14.7296L30.894 16.8638L30.5306 16.5C30.4814 16.4508 30.4423 16.3923 30.4156 16.328C30.389 16.2636 30.3753 16.1947 30.3753 16.125C30.3753 16.0554 30.389 15.9864 30.4156 15.9221C30.4423 15.8577 30.4814 15.7993 30.5306 15.75L31.9076 14.373C32.0713 14.2093 32.1828 14.0007 32.228 13.7736C32.2731 13.5466 32.2499 13.3112 32.1613 13.0973C32.0727 12.8834 31.9226 12.7006 31.73 12.5721C31.5375 12.4435 31.3111 12.3749 31.0796 12.375H29.9359C29.1573 12.375 28.4106 12.6843 27.86 13.2348C27.3095 13.7853 27.0001 14.5319 27 15.3105C26.9985 15.856 27.1053 16.3963 27.314 16.9003C27.5227 17.4042 27.8294 17.8617 28.2161 18.2464L28.8232 18.8535L26.4952 21.09L26.4052 21L26.5151 20.8901C26.5854 20.8198 26.6249 20.7244 26.6249 20.625C26.6249 20.5256 26.5854 20.4302 26.5151 20.3599L24.5734 18.4181C24.7619 17.9426 24.7999 17.4206 24.6821 16.9228C24.5644 16.425 24.2966 15.9754 23.915 15.6347C23.5334 15.294 23.0564 15.0787 22.5485 15.0179C22.0406 14.9571 21.5262 15.0538 21.075 15.2948L19.0151 13.2349C18.7431 12.9614 18.4196 12.7446 18.0633 12.597C17.7069 12.4494 17.3248 12.3739 16.9391 12.375C15.729 12.3764 14.5689 12.8578 13.7132 13.7135C12.8576 14.5692 12.3763 15.7294 12.375 16.9395C12.375 17.162 12.4411 17.3794 12.5647 17.5644C12.6883 17.7494 12.864 17.8935 13.0695 17.9786C13.2751 18.0638 13.5012 18.0861 13.7194 18.0427C13.9376 17.9993 14.138 17.8922 14.2954 17.7349L15.9922 16.038C16.1795 15.8591 16.4285 15.7593 16.6875 15.7593C16.9465 15.7593 17.1955 15.8591 17.3827 16.038L17.6572 16.3125L14.3599 19.6099C14.2896 19.6802 14.2501 19.7756 14.2501 19.875C14.2501 19.9744 14.2896 20.0698 14.3599 20.1401L15.4849 21.2651C15.5552 21.3354 15.6506 21.3749 15.75 21.3749C15.8494 21.3749 15.9448 21.3354 16.0151 21.2651L16.5 20.7803L21.5557 25.8375L14.394 32.7165C14.151 32.9501 13.9834 33.251 13.9128 33.5806C13.8421 33.9102 13.8716 34.2533 13.9975 34.566C14.1233 34.8787 14.3398 35.1466 14.6191 35.3353C14.8984 35.524 15.2277 35.6249 15.5647 35.625C16.0131 35.6243 16.4477 35.4702 16.7962 35.1881L24.5816 28.8623L30.7691 35.0498C31.1378 35.4185 31.6378 35.6257 32.1592 35.6258C32.6806 35.6258 33.1806 35.4188 33.5494 35.0501C33.9181 34.6815 34.1253 34.1815 34.1254 33.6601C34.1254 33.1387 33.9184 32.6386 33.5497 32.2699L27.6495 26.3693L28.2581 25.875H29.25C29.3495 25.875 29.4448 25.8355 29.5152 25.7652C29.5855 25.6949 29.625 25.5995 29.625 25.5V24.7643L32.4439 22.4741L33.1744 23.2046C33.3074 23.3393 33.4657 23.4464 33.6402 23.5196C33.8148 23.5929 34.0021 23.6309 34.1913 23.6315C34.3806 23.632 34.5681 23.5952 34.7431 23.523C34.9181 23.4508 35.0771 23.3448 35.2109 23.2109C35.3447 23.0771 35.4508 22.9181 35.5229 22.7431C35.5951 22.5681 35.6319 22.3805 35.6313 22.1913C35.6306 22.002 35.5926 21.8147 35.5193 21.6402C35.446 21.4657 35.3389 21.3074 35.2042 21.1744L34.5 20.4698ZM28.7464 17.7161C28.4294 17.401 28.1781 17.0261 28.0071 16.6132C27.8361 16.2002 27.7487 15.7575 27.75 15.3105C27.75 15.0235 27.8065 14.7393 27.9164 14.4741C28.0263 14.2089 28.1873 13.9679 28.3902 13.765C28.5932 13.562 28.8342 13.4011 29.0994 13.2913C29.3646 13.1815 29.6488 13.125 29.9359 13.125H31.0796C31.1628 13.125 31.2441 13.1496 31.3133 13.1958C31.3825 13.242 31.4364 13.3076 31.4682 13.3845C31.5001 13.4613 31.5084 13.5459 31.4922 13.6275C31.4759 13.709 31.4358 13.784 31.377 13.8428L30 15.2198C29.7599 15.4599 29.625 15.7855 29.625 16.125C29.625 16.4645 29.7599 16.7902 30 17.0303L30.3532 17.3835L29.3625 18.3338L28.7464 17.7161ZM33.3116 15.5809L33.75 16.2375V20.4465L29.3925 23.9869L27.0255 21.6203L33.3116 15.5809ZM24.8599 21.4849L24 22.3448L23.5927 21.9375L25.3125 20.2178L25.7197 20.625L24.8599 21.4849ZM24.7822 19.6875L23.0625 21.4073L22.4677 20.8125L24.0191 19.2615C24.0757 19.2049 24.129 19.1456 24.1792 19.0845L24.7822 19.6875ZM16.6875 15C16.4598 14.9994 16.2342 15.0439 16.0239 15.1311C15.8135 15.2182 15.6225 15.3463 15.462 15.5078L13.7651 17.2046C13.6938 17.2731 13.5988 17.3113 13.5 17.3113C13.4012 17.3113 13.3062 17.2731 13.2349 17.2046C13.1649 17.1341 13.1254 17.0389 13.125 16.9395C13.1261 15.9282 13.5283 14.9587 14.2433 14.2436C14.9584 13.5285 15.9279 13.1262 16.9391 13.125C17.2263 13.1242 17.5108 13.1804 17.7761 13.2902C18.0414 13.4001 18.2823 13.5615 18.4849 13.7651L20.4697 15.75L19.3125 16.9073L17.913 15.5078C17.7525 15.3463 17.5615 15.2182 17.3511 15.1311C17.1408 15.0439 16.9152 14.9994 16.6875 15ZM15.75 20.4698L15.1552 19.875L18.1875 16.8428L18.7822 17.4375L16.2349 19.9849L15.75 20.4698ZM16.3234 34.6073C16.1085 34.7806 15.8408 34.8751 15.5647 34.875C15.3772 34.8751 15.194 34.819 15.0385 34.7141C14.8831 34.6091 14.7627 34.4601 14.6927 34.2861C14.6227 34.1121 14.6063 33.9212 14.6457 33.7378C14.6851 33.5545 14.7785 33.3871 14.9137 33.2573L22.0875 26.3663L24.0502 28.329L16.3234 34.6073ZM33.375 33.6593C33.375 33.8998 33.3036 34.135 33.1699 34.335C33.0363 34.535 32.8463 34.6908 32.624 34.7828C32.4017 34.8748 32.1572 34.8988 31.9213 34.8518C31.6853 34.8048 31.4687 34.6889 31.2986 34.5188L17.0302 20.25L21.0191 16.2615C21.348 15.9406 21.7901 15.7623 22.2495 15.7651C22.709 15.768 23.1488 15.9518 23.4737 16.2767C23.7985 16.6016 23.9823 17.0415 23.9851 17.5009C23.9878 17.9604 23.8094 18.4024 23.4885 18.7313L21.6724 20.5474C21.6021 20.6177 21.5626 20.7131 21.5626 20.8125C21.5626 20.9119 21.6021 21.0073 21.6724 21.0776L23.7349 23.1401C23.8052 23.2104 23.9006 23.2499 24 23.2499C24.0994 23.2499 24.1948 23.2104 24.2651 23.1401L25.1107 22.2945C25.6074 22.9089 25.8773 23.6757 25.875 24.4658V25.5C25.875 25.5995 25.9145 25.6948 25.9849 25.7651L33.0191 32.7998C33.1324 32.9123 33.2222 33.0463 33.2832 33.1938C33.3443 33.3414 33.3755 33.4996 33.375 33.6593ZM26.625 25.3448V24.5303L27.5659 25.4711L27.1159 25.836L26.625 25.3448ZM28.875 25.125H28.2802L26.4615 23.3063C26.3002 22.7398 26.0211 22.2139 25.6425 21.7628L25.875 21.5303L28.875 24.5303V25.125ZM34.1891 22.875C34.0991 22.8752 34.0098 22.8576 33.9266 22.8232C33.8434 22.7888 33.7678 22.7382 33.7042 22.6744L33.0292 21.9994L34.0995 21.1301L34.6747 21.7054C34.7703 21.8014 34.8352 21.9236 34.8615 22.0565C34.8877 22.1894 34.8739 22.327 34.822 22.4521C34.77 22.5772 34.6822 22.6842 34.5696 22.7594C34.457 22.8347 34.3246 22.8749 34.1891 22.875Z" fill="white" stroke="white" stroke-width="0.5"/>
<path d="M29.7348 22.765C29.8051 22.8353 29.9005 22.8748 29.9999 22.8748C30.0994 22.8748 30.1947 22.8353 30.265 22.765L32.89 20.14C32.9603 20.0697 32.9998 19.9744 32.9998 19.8749C32.9998 19.7755 32.9603 19.6801 32.89 19.6098L31.765 18.4848C31.6947 18.4145 31.5994 18.375 31.4999 18.375C31.4005 18.375 31.3051 18.4145 31.2348 18.4848L28.6098 21.1098C28.5395 21.1801 28.5 21.2755 28.5 21.3749C28.5 21.4744 28.5395 21.5697 28.6098 21.64L29.7348 22.765ZM31.4999 19.2802L32.0947 19.8749L29.9999 21.9697L29.4052 21.3749L31.4999 19.2802Z" fill="white" stroke="white" stroke-width="0.5"/>
</g>
<defs>
<linearGradient id="paint0_linear_59_614" x1="0" y1="0" x2="48" y2="48" gradientUnits="userSpaceOnUse">
<stop stop-color="#4EA512"/>
<stop offset="1" stop-color="#6FCB2A"/>
</linearGradient>
<linearGradient id="paint1_linear_59_614" x1="0" y1="0" x2="48" y2="48" gradientUnits="userSpaceOnUse">
<stop stop-color="#4EA512"/>
<stop offset="1" stop-color="#6FCB2A"/>
</linearGradient>
<clipPath id="clip0_59_614">
<rect width="24" height="24" fill="white" transform="translate(12 12)"/>
</clipPath>
</defs>
</svg>
