<svg width="80" height="80" viewBox="0 0 80 80" fill="none" xmlns="http://www.w3.org/2000/svg">
<rect x="1" y="1" width="78" height="78" rx="38" fill="url(#paint0_linear_32_37)"/>
<rect x="1" y="1" width="78" height="78" rx="38" stroke="url(#paint1_linear_32_37)" stroke-width="2"/>
<path d="M20.216 40.544L23.256 43.824L21.936 48.096C21.808 48.496 22.016 48.928 22.408 49.08L26.576 50.704L27.24 55.128C27.304 55.544 27.68 55.832 28.088 55.808L32.552 55.472L35.072 59.168C35.224 59.392 35.48 59.52 35.736 59.52C35.872 59.52 36.008 59.488 36.136 59.416L40.008 57.176L43.88 59.416C44.248 59.624 44.704 59.52 44.944 59.176L47.464 55.48L51.928 55.816C52.344 55.848 52.72 55.552 52.776 55.136L53.44 50.712L57.608 49.088C58 48.936 58.208 48.504 58.08 48.104L56.76 43.832L59.8 40.552C60.088 40.248 60.088 39.768 59.8 39.464L56.76 36.184L58.08 31.912C58.208 31.512 58 31.08 57.608 30.928L53.44 29.304L52.776 24.88C52.712 24.464 52.336 24.16 51.928 24.2L47.464 24.536L44.944 20.84C44.712 20.496 44.248 20.384 43.88 20.6L40 22.832L36.128 20.592C35.768 20.384 35.304 20.488 35.064 20.832L32.544 24.528L28.08 24.192C27.664 24.152 27.288 24.456 27.232 24.872L26.568 29.296L22.4 30.92C22.008 31.072 21.8 31.504 21.928 31.904L23.248 36.176L20.208 39.456C19.928 39.76 19.928 40.24 20.216 40.544ZM24.744 36.928C24.936 36.72 25.008 36.424 24.92 36.144L23.68 32.144L27.584 30.616C27.848 30.512 28.04 30.272 28.088 29.992L28.712 25.848L32.896 26.16C33.184 26.184 33.456 26.048 33.616 25.816L35.976 22.352L39.608 24.456C39.856 24.6 40.16 24.6 40.408 24.456L44.04 22.352L46.4 25.816C46.56 26.056 46.84 26.184 47.12 26.16L51.304 25.848L51.928 29.992C51.968 30.272 52.16 30.512 52.432 30.616L56.336 32.144L55.096 36.152C55.008 36.424 55.08 36.72 55.272 36.936L58.112 40L55.256 43.072C55.064 43.28 54.992 43.576 55.08 43.856L56.32 47.864L52.416 49.392C52.152 49.496 51.96 49.736 51.912 50.016L51.288 54.16L47.104 53.848C46.816 53.824 46.544 53.96 46.384 54.192L44.024 57.656L40.392 55.552C40.144 55.408 39.84 55.408 39.592 55.552L35.96 57.656L33.6 54.192C33.448 53.976 33.2 53.84 32.936 53.84C32.92 53.84 32.896 53.84 32.88 53.84L28.696 54.152L28.072 50.008C28.032 49.728 27.84 49.488 27.568 49.384L23.68 47.856L24.92 43.848C25.008 43.576 24.936 43.28 24.744 43.064L21.888 40L24.744 36.928Z" fill="white" stroke="white" stroke-width="0.5"/>
<path d="M40 50.56C45.824 50.56 50.568 45.824 50.568 39.992C50.568 34.16 45.824 29.432 40 29.432C34.176 29.432 29.432 34.176 29.432 40C29.432 45.824 34.176 50.56 40 50.56ZM40 31.032C44.944 31.032 48.968 35.056 48.968 40C48.968 44.944 44.944 48.96 40 48.96C35.056 48.96 31.032 44.944 31.032 40C31.032 35.056 35.056 31.032 40 31.032Z" fill="white" stroke="white" stroke-width="0.5"/>
<path d="M37.48 43.792C37.64 43.952 37.84 44.024 38.048 44.024C38.256 44.024 38.456 43.944 38.616 43.792L45.064 37.344C45.376 37.032 45.376 36.528 45.064 36.216C44.752 35.904 44.248 35.904 43.936 36.216L38.056 42.096L36.088 40.128C35.776 39.816 35.272 39.816 34.96 40.128C34.648 40.44 34.648 40.944 34.96 41.256L37.48 43.792Z" fill="white" stroke="white" stroke-width="0.5"/>
<defs>
<linearGradient id="paint0_linear_32_37" x1="0" y1="0" x2="80" y2="80" gradientUnits="userSpaceOnUse">
<stop stop-color="#4EA512"/>
<stop offset="1" stop-color="#6FCB2A"/>
</linearGradient>
<linearGradient id="paint1_linear_32_37" x1="0" y1="0" x2="80" y2="80" gradientUnits="userSpaceOnUse">
<stop stop-color="#4EA512"/>
<stop offset="1" stop-color="#6FCB2A"/>
</linearGradient>
</defs>
</svg>
