<svg width="80" height="80" viewBox="0 0 80 80" fill="none" xmlns="http://www.w3.org/2000/svg">
<rect x="1" y="1" width="78" height="78" rx="38" fill="url(#paint0_linear_32_43)"/>
<rect x="1" y="1" width="78" height="78" rx="38" stroke="url(#paint1_linear_32_43)" stroke-width="2"/>
<path d="M46.0004 57.9998C36.0804 57.9998 28.0005 49.9198 28.0005 39.9998C28.0005 30.0699 36.0804 21.9999 46.0004 21.9999C55.9204 21.9999 64.0004 30.0699 64.0004 39.9998C64.0004 49.9198 55.9204 57.9998 46.0004 57.9998ZM46.0004 23.9999C37.1804 23.9999 30.0004 31.1799 30.0004 39.9998C30.0004 48.8198 37.1804 55.9998 46.0004 55.9998C54.8204 55.9998 62.0004 48.8198 62.0004 39.9998C62.0004 31.1799 54.8204 23.9999 46.0004 23.9999Z" fill="white"/>
<path d="M52.9999 40.9995H46C45.45 40.9995 45 40.5495 45 39.9995V26.9995C45 26.4495 45.45 25.9995 46 25.9995C46.55 25.9995 47 26.4495 47 26.9995V38.9995H52.9999C53.5499 38.9995 53.9999 39.4495 53.9999 39.9995C53.9999 40.5495 53.5499 40.9995 52.9999 40.9995Z" fill="white"/>
<path d="M25.0003 38.0001H17.0004C16.4504 38.0001 16.0004 37.5501 16.0004 37.0001C16.0004 36.4501 16.4504 36.0001 17.0004 36.0001H25.0003C25.5503 36.0001 26.0003 36.4501 26.0003 37.0001C26.0003 37.5501 25.5503 38.0001 25.0003 38.0001Z" fill="white"/>
<path d="M24.0002 42.9995H20.0002C19.4502 42.9995 19.0002 42.5495 19.0002 41.9995C19.0002 41.4495 19.4502 40.9995 20.0002 40.9995H24.0002C24.5502 40.9995 25.0002 41.4495 25.0002 41.9995C25.0002 42.5495 24.5502 42.9995 24.0002 42.9995Z" fill="white"/>
<path d="M21.0004 47.9998H17.0004C16.4504 47.9998 16.0004 47.5498 16.0004 46.9998C16.0004 46.4498 16.4504 45.9998 17.0004 45.9998H21.0004C21.5504 45.9998 22.0004 46.4498 22.0004 46.9998C22.0004 47.5498 21.5504 47.9998 21.0004 47.9998Z" fill="white"/>
<path d="M34.0003 53H17.0004C16.4504 53 16.0004 52.55 16.0004 52C16.0004 51.45 16.4504 51 17.0004 51H34.0003C34.5503 51 35.0003 51.45 35.0003 52C35.0003 52.55 34.5503 53 34.0003 53Z" fill="white"/>
<path d="M46.0004 57.9998C36.0804 57.9998 28.0005 49.9198 28.0005 39.9998C28.0005 30.0699 36.0804 21.9999 46.0004 21.9999C55.9204 21.9999 64.0004 30.0699 64.0004 39.9998C64.0004 49.9198 55.9204 57.9998 46.0004 57.9998ZM46.0004 23.9999C37.1804 23.9999 30.0004 31.1799 30.0004 39.9998C30.0004 48.8198 37.1804 55.9998 46.0004 55.9998C54.8204 55.9998 62.0004 48.8198 62.0004 39.9998C62.0004 31.1799 54.8204 23.9999 46.0004 23.9999Z" stroke="white" stroke-width="0.5"/>
<path d="M52.9999 40.9995H46C45.45 40.9995 45 40.5495 45 39.9995V26.9995C45 26.4495 45.45 25.9995 46 25.9995C46.55 25.9995 47 26.4495 47 26.9995V38.9995H52.9999C53.5499 38.9995 53.9999 39.4495 53.9999 39.9995C53.9999 40.5495 53.5499 40.9995 52.9999 40.9995Z" stroke="white" stroke-width="0.5"/>
<path d="M25.0003 38.0001H17.0004C16.4504 38.0001 16.0004 37.5501 16.0004 37.0001C16.0004 36.4501 16.4504 36.0001 17.0004 36.0001H25.0003C25.5503 36.0001 26.0003 36.4501 26.0003 37.0001C26.0003 37.5501 25.5503 38.0001 25.0003 38.0001Z" stroke="white" stroke-width="0.5"/>
<path d="M24.0002 42.9995H20.0002C19.4502 42.9995 19.0002 42.5495 19.0002 41.9995C19.0002 41.4495 19.4502 40.9995 20.0002 40.9995H24.0002C24.5502 40.9995 25.0002 41.4495 25.0002 41.9995C25.0002 42.5495 24.5502 42.9995 24.0002 42.9995Z" stroke="white" stroke-width="0.5"/>
<path d="M21.0004 47.9998H17.0004C16.4504 47.9998 16.0004 47.5498 16.0004 46.9998C16.0004 46.4498 16.4504 45.9998 17.0004 45.9998H21.0004C21.5504 45.9998 22.0004 46.4498 22.0004 46.9998C22.0004 47.5498 21.5504 47.9998 21.0004 47.9998Z" stroke="white" stroke-width="0.5"/>
<path d="M34.0003 53H17.0004C16.4504 53 16.0004 52.55 16.0004 52C16.0004 51.45 16.4504 51 17.0004 51H34.0003C34.5503 51 35.0003 51.45 35.0003 52C35.0003 52.55 34.5503 53 34.0003 53Z" stroke="white" stroke-width="0.5"/>
<defs>
<linearGradient id="paint0_linear_32_43" x1="0" y1="0" x2="80" y2="80" gradientUnits="userSpaceOnUse">
<stop stop-color="#4EA512"/>
<stop offset="1" stop-color="#6FCB2A"/>
</linearGradient>
<linearGradient id="paint1_linear_32_43" x1="0" y1="0" x2="80" y2="80" gradientUnits="userSpaceOnUse">
<stop stop-color="#4EA512"/>
<stop offset="1" stop-color="#6FCB2A"/>
</linearGradient>
</defs>
</svg>
