<svg width="64" height="64" viewBox="0 0 64 64" fill="none" xmlns="http://www.w3.org/2000/svg">
<rect width="64" height="64" rx="24" fill="url(#paint0_linear_140_1146)" fill-opacity="0.2"/>
<g clip-path="url(#clip0_140_1146)">
<path d="M44.5 36C44.5 35.8674 44.4473 35.7402 44.3536 35.6464C44.2598 35.5527 44.1326 35.5 44 35.5H41C40.8674 35.5 40.7402 35.5527 40.6464 35.6464C40.5527 35.7402 40.5 35.8674 40.5 36V36.5H39C38.8674 36.5 38.7402 36.5527 38.6464 36.6464C38.5527 36.7402 38.5 36.8674 38.5 37V37.5H33.6C33.5001 37.5 33.4026 37.5299 33.3199 37.5859C33.2372 37.6419 33.1731 37.7213 33.136 37.814L32.536 39.314C32.4985 39.4075 32.4901 39.5102 32.512 39.6085L32.8185 40.9875L31.441 40.179L30.9325 37.8915C30.9078 37.7805 30.846 37.6812 30.7573 37.61C30.6686 37.5388 30.5582 37.5 30.4445 37.5H25.5V37C25.5 36.8674 25.4473 36.7402 25.3536 36.6464C25.2598 36.5527 25.1326 36.5 25 36.5H23.5V36C23.5 35.8674 23.4473 35.7402 23.3536 35.6464C23.2598 35.5527 23.1326 35.5 23 35.5H20C19.8674 35.5 19.7402 35.5527 19.6464 35.6464C19.5527 35.7402 19.5 35.8674 19.5 36V36.5H16.5V37.5H19.5V45.5H16.5V46.5H19.5V47C19.5 47.1326 19.5527 47.2598 19.6464 47.3536C19.7402 47.4473 19.8674 47.5 20 47.5H23C23.1326 47.5 23.2598 47.4473 23.3536 47.3536C23.4473 47.2598 23.5 47.1326 23.5 47V46.5H25C25.1326 46.5 25.2598 46.4473 25.3536 46.3536C25.4473 46.2598 25.5 46.1326 25.5 46H38.5C38.5 46.1326 38.5527 46.2598 38.6464 46.3536C38.7402 46.4473 38.8674 46.5 39 46.5H40.5V47C40.5 47.1326 40.5527 47.2598 40.6464 47.3536C40.7402 47.4473 40.8674 47.5 41 47.5H44C44.1326 47.5 44.2598 47.4473 44.3536 47.3536C44.4473 47.2598 44.5 47.1326 44.5 47V46.5H47.5V45.5H44.5V37.5H47.5V36.5H44.5V36ZM22.5 46.5H20.5V36.5H22.5V46.5ZM24.5 45.5H23.5V37.5H24.5V45.5ZM33.9385 38.5H38.5V40H36.5C36.3674 40 36.2402 40.0527 36.1465 40.1465L34.793 41.5H33.9565L33.5215 39.542L33.9385 38.5ZM38.5 41V44.793L35.707 42L36.707 41H38.5ZM25.5 38.5H30.043L30.512 40.6085C30.5269 40.6755 30.5555 40.7387 30.5959 40.7942C30.6364 40.8497 30.6878 40.8963 30.747 40.931L33.3025 42.431C33.3791 42.4763 33.4665 42.5001 33.5555 42.5H34.793L37.293 45H25.5V38.5ZM39.5 45.5V37.5H40.5V45.5H39.5ZM43.5 46.5H41.5V36.5H43.5V46.5Z" fill="#2E3033" stroke="#2E3033" stroke-width="0.5"/>
<path d="M30.2195 35.323L31.6345 36.841C31.6813 36.8911 31.7379 36.9311 31.8008 36.9584C31.8636 36.9857 31.9315 36.9998 32 36.9998C32.0686 36.9998 32.1364 36.9857 32.1993 36.9584C32.2622 36.9311 32.3187 36.8911 32.3655 36.841L33.7805 35.323C36.1034 34.8798 38.1774 33.5862 39.5972 31.6951C41.017 29.804 41.6804 27.4514 41.4578 25.0971C41.2353 22.7429 40.1426 20.5563 38.3936 18.9648C36.6445 17.3733 34.3648 16.4913 32 16.4913C29.6353 16.4913 27.3555 17.3733 25.6065 18.9648C23.8574 20.5563 22.7648 22.7429 22.5422 25.0971C22.3196 27.4514 22.9831 29.804 24.4028 31.6951C25.8226 33.5862 27.8967 34.8798 30.2195 35.323ZM32 17.5C34.1283 17.4992 36.1794 18.2973 37.7474 19.7364C39.3154 21.1754 40.2862 23.1506 40.4677 25.2711C40.6491 27.3917 40.0281 29.5031 38.7274 31.1876C37.4266 32.8722 35.541 34.0071 33.4435 34.368C33.3358 34.3859 33.237 34.4386 33.162 34.518L32 35.7665L30.838 34.52C30.7631 34.4406 30.6642 34.3879 30.5565 34.37C28.4565 34.0117 26.5678 32.8776 25.2646 31.1924C23.9614 29.5071 23.339 27.3938 23.5206 25.2712C23.7022 23.1486 24.6747 21.1718 26.2452 19.7324C27.8157 18.293 29.8697 17.4963 32 17.5Z" fill="#2E3033" stroke="#2E3033" stroke-width="0.5"/>
<path d="M35.3335 27.3333H32.0002C31.6335 27.3333 31.3335 27.0333 31.3335 26.6666L31.3335 20.6667C31.3335 20.3 31.6335 20 32.0002 20C32.3668 20 32.6668 20.3 32.6668 20.6667V26H35.3335C35.7001 26 36.0001 26.3 36.0001 26.6666C36.0001 27.0333 35.7001 27.3333 35.3335 27.3333Z" fill="#2E3033" stroke="#2E3033" stroke-width="0.5"/>
</g>
<defs>
<linearGradient id="paint0_linear_140_1146" x1="0" y1="0" x2="64" y2="64" gradientUnits="userSpaceOnUse">
<stop stop-color="#4EA512"/>
<stop offset="1" stop-color="#6FCB2A"/>
</linearGradient>
<clipPath id="clip0_140_1146">
<rect width="32" height="32" fill="white" transform="translate(16 16)"/>
</clipPath>
</defs>
</svg>
