<svg width="64" height="64" viewBox="0 0 64 64" fill="none" xmlns="http://www.w3.org/2000/svg">
<rect width="64" height="64" rx="24" fill="url(#paint0_linear_140_1180)" fill-opacity="0.2"/>
<g clip-path="url(#clip0_140_1180)">
<path d="M46 27.293V21.5C45.9998 21.4013 45.9706 21.3048 45.916 21.2225L44.916 19.7225C44.8754 19.6617 44.822 19.6105 44.7595 19.5725C44.6969 19.5346 44.6268 19.5108 44.5541 19.5029C44.4814 19.495 44.4079 19.5031 44.3386 19.5267C44.2694 19.5503 44.2062 19.5888 44.1535 19.6395L41.192 22.485L40.7075 22C40.6418 21.9344 40.5897 21.8564 40.5542 21.7706C40.5186 21.6848 40.5003 21.5929 40.5003 21.5C40.5003 21.4072 40.5186 21.3152 40.5542 21.2294C40.5897 21.1436 40.6418 21.0657 40.7075 21L42.5435 19.164C42.7618 18.9457 42.9104 18.6676 42.9707 18.3649C43.0309 18.0621 42.9999 17.7483 42.8817 17.4631C42.7635 17.1779 42.5634 16.9342 42.3067 16.7628C42.05 16.5913 41.7482 16.4999 41.4395 16.5H39.9145C38.8764 16.5 37.8808 16.9124 37.1467 17.6464C36.4126 18.3804 36.0001 19.3759 36 20.414C35.998 21.1413 36.1403 21.8618 36.4187 22.5337C36.697 23.2056 37.1058 23.8156 37.6215 24.3285L38.431 25.138L35.327 28.12L35.207 28L35.3535 27.8535C35.4472 27.7598 35.4999 27.6326 35.4999 27.5C35.4999 27.3674 35.4472 27.2403 35.3535 27.1465L32.7645 24.5575C33.0159 23.9235 33.0665 23.2275 32.9095 22.5638C32.7525 21.9 32.3954 21.3005 31.8867 20.8462C31.3779 20.392 30.7419 20.1049 30.0646 20.0239C29.3874 19.9428 28.7016 20.0717 28.1 20.393L25.3535 17.6465C24.9909 17.2819 24.5595 16.9928 24.0844 16.796C23.6092 16.5992 23.0998 16.4986 22.5855 16.5C20.972 16.5019 19.4251 17.1437 18.2843 18.2846C17.1434 19.4256 16.5017 20.9725 16.5 22.586C16.5001 22.8826 16.5881 23.1726 16.7529 23.4192C16.9177 23.6658 17.152 23.858 17.426 23.9715C17.7001 24.085 18.0016 24.1147 18.2925 24.0569C18.5835 23.999 18.8507 23.8562 19.0605 23.6465L21.323 21.384C21.5727 21.1455 21.9047 21.0124 22.25 21.0124C22.5953 21.0124 22.9273 21.1455 23.177 21.384L23.543 21.75L19.1465 26.1465C19.0528 26.2403 19.0001 26.3674 19.0001 26.5C19.0001 26.6326 19.0528 26.7598 19.1465 26.8535L20.6465 28.3535C20.7403 28.4473 20.8674 28.4999 21 28.4999C21.1326 28.4999 21.2597 28.4473 21.3535 28.3535L22 27.707L28.741 34.45L19.192 43.622C18.868 43.9335 18.6446 44.3347 18.5504 44.7741C18.4562 45.2135 18.4955 45.6711 18.6633 46.088C18.8311 46.5049 19.1198 46.8621 19.4921 47.1137C19.8645 47.3653 20.3036 47.4999 20.753 47.5C21.3508 47.4991 21.9303 47.2936 22.395 46.9175L32.7755 38.483L41.0255 46.733C41.517 47.2247 42.1837 47.5009 42.8789 47.501C43.5741 47.5011 44.2409 47.225 44.7325 46.7335C45.2241 46.242 45.5004 45.5753 45.5005 44.8801C45.5006 44.1849 45.2245 43.5182 44.733 43.0265L36.866 35.159L37.6775 34.5H39C39.1326 34.5 39.2598 34.4473 39.3536 34.3536C39.4473 34.2598 39.5 34.1326 39.5 34V33.019L43.2585 29.9655L44.2325 30.9395C44.4098 31.1191 44.6209 31.2618 44.8536 31.3595C45.0863 31.4572 45.3361 31.5078 45.5884 31.5086C45.8408 31.5094 46.0909 31.4603 46.3242 31.364C46.5575 31.2678 46.7694 31.1264 46.9479 30.9479C47.1263 30.7694 47.2677 30.5574 47.3639 30.3241C47.4601 30.0908 47.5092 29.8407 47.5083 29.5884C47.5075 29.336 47.4568 29.0863 47.3591 28.8536C47.2614 28.6209 47.1186 28.4098 46.939 28.2325L46 27.293ZM38.3285 23.6215C37.9059 23.2014 37.5708 22.7015 37.3428 22.1509C37.1147 21.6003 36.9982 21.01 37 20.414C37 20.0313 37.0754 19.6523 37.2219 19.2988C37.3683 18.9452 37.583 18.6239 37.8537 18.3533C38.1243 18.0827 38.4456 17.8681 38.7992 17.7217C39.1528 17.5753 39.5318 17.4999 39.9145 17.5H41.4395C41.5504 17.4999 41.6588 17.5328 41.7511 17.5944C41.8433 17.656 41.9152 17.7435 41.9576 17.846C42.0001 17.9484 42.0112 18.0612 41.9895 18.17C41.9679 18.2787 41.9145 18.3786 41.836 18.457L40 20.293C39.6799 20.6131 39.5001 21.0473 39.5001 21.5C39.5001 21.9527 39.6799 22.3869 40 22.707L40.471 23.178L39.15 24.445L38.3285 23.6215ZM44.4155 20.7745L45 21.65V27.262L39.19 31.9825L36.034 28.827L44.4155 20.7745ZM33.1465 28.6465L32 29.793L31.457 29.25L33.75 26.957L34.293 27.5L33.1465 28.6465ZM33.043 26.25L30.75 28.543L29.957 27.75L32.0255 25.682C32.101 25.6065 32.172 25.5275 32.239 25.446L33.043 26.25ZM22.25 20C21.9464 19.9992 21.6456 20.0586 21.3652 20.1748C21.0847 20.291 20.83 20.4617 20.616 20.677L18.3535 22.9395C18.2584 23.0308 18.1318 23.0817 18 23.0817C17.8682 23.0817 17.7416 23.0308 17.6465 22.9395C17.5531 22.8455 17.5005 22.7185 17.5 22.586C17.5015 21.2377 18.0377 19.9449 18.9911 18.9915C19.9445 18.038 21.2371 17.5016 22.5855 17.5C22.9684 17.4989 23.3477 17.5738 23.7015 17.7203C24.0553 17.8668 24.3765 18.082 24.6465 18.3535L27.293 21L25.75 22.543L23.884 20.677C23.67 20.4617 23.4153 20.291 23.1348 20.1748C22.8544 20.0586 22.5536 19.9992 22.25 20ZM21 27.293L20.207 26.5L24.25 22.457L25.043 23.25L21.6465 26.6465L21 27.293ZM21.7645 46.143C21.478 46.3741 21.1211 46.5001 20.753 46.5C20.503 46.5001 20.2586 46.4254 20.0514 46.2854C19.8442 46.1455 19.6836 45.9468 19.5902 45.7148C19.4969 45.4828 19.4751 45.2282 19.5276 44.9838C19.5801 44.7393 19.7046 44.5162 19.885 44.343L29.45 35.155L32.067 37.772L21.7645 46.143ZM44.5 44.879C44.5 45.1998 44.4048 45.5133 44.2266 45.7799C44.0483 46.0466 43.795 46.2544 43.4987 46.3771C43.2023 46.4998 42.8762 46.5318 42.5617 46.4691C42.2471 46.4065 41.9582 46.2519 41.7315 46.025L22.707 27L28.0255 21.682C28.464 21.2542 29.0534 21.0164 29.666 21.0202C30.2786 21.024 30.8651 21.2691 31.2982 21.7023C31.7314 22.1355 31.9764 22.722 31.9801 23.3346C31.9838 23.9472 31.7459 24.5366 31.318 24.975L28.8965 27.3965C28.8028 27.4903 28.7501 27.6174 28.7501 27.75C28.7501 27.8826 28.8028 28.0098 28.8965 28.1035L31.6465 30.8535C31.7403 30.9473 31.8674 30.9999 32 30.9999C32.1326 30.9999 32.2597 30.9473 32.3535 30.8535L33.481 29.726C34.1433 30.5452 34.5031 31.5676 34.5 32.621V34C34.5 34.1326 34.5527 34.2598 34.6465 34.3535L44.0255 43.733C44.1765 43.8831 44.2962 44.0617 44.3777 44.2584C44.4591 44.4552 44.5007 44.6661 44.5 44.879ZM35.5 33.793V32.707L36.7545 33.9615L36.1545 34.448L35.5 33.793ZM38.5 33.5H37.707L35.282 31.075C35.067 30.3198 34.6948 29.6185 34.19 29.017L34.5 28.707L38.5 32.707V33.5ZM45.5855 30.5C45.4654 30.5003 45.3465 30.4768 45.2355 30.4309C45.1245 30.385 45.0238 30.3176 44.939 30.2325L44.039 29.3325L45.466 28.1735L46.233 28.9405C46.3604 29.0685 46.447 29.2314 46.4819 29.4086C46.5169 29.5858 46.4986 29.7694 46.4293 29.9362C46.36 30.103 46.243 30.2455 46.0928 30.3459C45.9426 30.4462 45.7661 30.4999 45.5855 30.5Z" fill="#2E3033" stroke="#2E3033" stroke-width="0.5"/>
<path d="M39.6464 30.3535C39.7402 30.4473 39.8673 30.4999 39.9999 30.4999C40.1325 30.4999 40.2596 30.4473 40.3534 30.3535L43.8534 26.8535C43.9471 26.7598 43.9998 26.6326 43.9998 26.5C43.9998 26.3674 43.9471 26.2403 43.8534 26.1465L42.3534 24.6465C42.2596 24.5528 42.1325 24.5001 41.9999 24.5001C41.8673 24.5001 41.7402 24.5528 41.6464 24.6465L38.1464 28.1465C38.0527 28.2403 38 28.3674 38 28.5C38 28.6326 38.0527 28.7598 38.1464 28.8535L39.6464 30.3535ZM41.9999 25.707L42.7929 26.5L39.9999 29.293L39.2069 28.5L41.9999 25.707Z" fill="#2E3033" stroke="#2E3033" stroke-width="0.5"/>
</g>
<defs>
<linearGradient id="paint0_linear_140_1180" x1="0" y1="0" x2="64" y2="64" gradientUnits="userSpaceOnUse">
<stop stop-color="#4EA512"/>
<stop offset="1" stop-color="#6FCB2A"/>
</linearGradient>
<clipPath id="clip0_140_1180">
<rect width="32" height="32" fill="white" transform="translate(16 16)"/>
</clipPath>
</defs>
</svg>
