<svg width="48" height="48" viewBox="0 0 48 48" fill="none" xmlns="http://www.w3.org/2000/svg">
<path d="M39.5002 15.75L40.5 17.25L39 18.75L39.75 21L36.75 19.5V16.5L36 15.75H30V19.5H28.5V12.75H30V11.25H24.75V29.25H30V27.75H28.5V21H30V24.75H34.5135C34.9994 23.8265 35.5401 22.9329 36.1327 22.074C36.2055 21.9794 36.2989 21.9028 36.406 21.8501C36.513 21.7973 36.6307 21.7699 36.75 21.7699C36.8693 21.7699 36.987 21.7973 37.094 21.8501C37.2011 21.9028 37.2945 21.9794 37.3673 22.074C37.9599 22.9329 38.5006 23.8265 38.9865 24.75H46.5V15.75H39.5002Z" fill="url(#paint0_linear_142_1185)"/>
<path d="M39.75 34.5C39.75 35.0967 39.9871 35.669 40.409 36.091C40.831 36.5129 41.4033 36.75 42 36.75C42.5967 36.75 43.169 36.5129 43.591 36.091C44.0129 35.669 44.25 35.0967 44.25 34.5C44.25 33.2573 42 30 42 30C42 30 39.75 33.2573 39.75 34.5Z" fill="url(#paint1_linear_142_1185)"/>
<path d="M31.5 36C31.5 36.3978 31.658 36.7794 31.9393 37.0607C32.2206 37.342 32.6022 37.5 33 37.5C33.3978 37.5 33.7794 37.342 34.0607 37.0607C34.342 36.7794 34.5 36.3978 34.5 36C34.5 35.175 33 33 33 33C33 33 31.5 35.175 31.5 36Z" fill="url(#paint2_linear_142_1185)"/>
<path d="M18 11.25V12.75H19.5V19.5H18V15.75H1.5V24.75H18V21H19.5V27.75H18V29.25H19.5H23.25V11.25H19.5H18Z" fill="url(#paint3_linear_142_1185)"/>
<defs>
<linearGradient id="paint0_linear_142_1185" x1="24.75" y1="11.25" x2="42.4324" y2="32.6163" gradientUnits="userSpaceOnUse">
<stop stop-color="#2E6608"/>
<stop offset="1" stop-color="#3F8A0E"/>
</linearGradient>
<linearGradient id="paint1_linear_142_1185" x1="39.75" y1="30" x2="45.9808" y2="34.1538" gradientUnits="userSpaceOnUse">
<stop stop-color="#2E6608"/>
<stop offset="1" stop-color="#3F8A0E"/>
</linearGradient>
<linearGradient id="paint2_linear_142_1185" x1="31.5" y1="33" x2="35.6538" y2="35.7692" gradientUnits="userSpaceOnUse">
<stop stop-color="#2E6608"/>
<stop offset="1" stop-color="#3F8A0E"/>
</linearGradient>
<linearGradient id="paint3_linear_142_1185" x1="1.5" y1="11.25" x2="19.1824" y2="32.6163" gradientUnits="userSpaceOnUse">
<stop stop-color="#2E6608"/>
<stop offset="1" stop-color="#3F8A0E"/>
</linearGradient>
</defs>
</svg>
