<svg width="44" height="36" viewBox="0 0 44 36" fill="none" xmlns="http://www.w3.org/2000/svg">
<path d="M16.4876 29.97C13.852 29.9733 11.2731 29.205 9.06891 27.7599C6.86478 26.3148 5.13185 24.2562 4.08388 21.8379C3.03592 19.4195 2.71876 16.7474 3.17152 14.1509C3.62428 11.5545 4.82716 9.14737 6.63179 7.22648C8.43641 5.30559 10.7638 3.95497 13.327 3.34119C15.8902 2.72742 18.5769 2.87735 21.0559 3.77249C23.5348 4.66763 25.6975 6.26883 27.2772 8.37857C28.8569 10.4883 29.7845 13.0143 29.9456 15.645C30.8987 15.3017 31.8941 15.0898 32.9043 15.015C32.5907 11.5122 31.1651 8.20144 28.8358 5.56656C26.5065 2.93168 23.3956 1.11078 19.9577 0.369933C16.5198 -0.370915 12.935 0.00712171 9.72723 1.4488C6.51947 2.89048 3.85682 5.32024 2.12838 8.38304C0.39993 11.4458 -0.30372 14.9811 0.120245 18.4723C0.54421 21.9635 2.07357 25.2276 4.48484 27.7877C6.89612 30.3478 10.0629 32.0696 13.5225 32.7016C16.9821 33.3336 20.5532 32.8427 23.7138 31.3005C23.2517 30.4005 22.9143 29.4417 22.7111 28.4505C20.789 29.4503 18.6541 29.9715 16.4876 29.97Z" fill="url(#paint0_linear_41_51)"/>
<path d="M17.2376 21.5819C17.676 21.4292 18.056 21.1438 18.3249 20.7654C18.5938 20.3869 18.7383 19.9342 18.7383 19.4699C18.7383 19.0057 18.5938 18.5529 18.3249 18.1745C18.056 17.796 17.676 17.5106 17.2376 17.3579V21.5819Z" fill="url(#paint1_linear_41_51)"/>
<path d="M14.2376 13.4699C14.2395 13.9336 14.3847 14.3854 14.6532 14.7634C14.9217 15.1415 15.3004 15.4273 15.7376 15.5819V11.3579C15.3004 11.5125 14.9217 11.7983 14.6532 12.1764C14.3847 12.5544 14.2395 13.0062 14.2376 13.4699Z" fill="url(#paint2_linear_41_51)"/>
<path d="M28.4779 16.2825C28.4377 13.6459 27.5305 11.096 25.8965 9.02642C24.2625 6.95689 21.9925 5.48293 19.4372 4.83222C16.8819 4.1815 14.1834 4.39023 11.7586 5.42616C9.33375 6.46209 7.31745 8.26758 6.02112 10.5638C4.72478 12.86 4.22054 15.5191 4.58628 18.1305C4.95201 20.7418 6.16738 23.1601 8.04464 25.0119C9.92191 26.8636 12.3566 28.0457 14.9728 28.3756C17.5889 28.7055 20.2409 28.1649 22.5191 26.8372C22.5079 26.6317 22.4876 26.4285 22.4876 26.22C22.4895 24.1757 23.0481 22.1706 24.1034 20.4198C25.1588 18.669 26.671 17.2387 28.4779 16.2825ZM20.2376 19.47C20.2365 20.3341 19.9375 21.1715 19.3911 21.8409C18.8446 22.5103 18.084 22.9709 17.2376 23.145V24.72H15.7376V23.145C14.8912 22.9709 14.1306 22.5103 13.5841 21.8409C13.0377 21.1715 12.7387 20.3341 12.7376 19.47H14.2376C14.2395 19.9337 14.3847 20.3854 14.6532 20.7635C14.9217 21.1415 15.3004 21.4274 15.7376 21.582V17.145C14.8899 16.9728 14.1277 16.5129 13.5803 15.8432C13.0329 15.1734 12.7338 14.335 12.7338 13.47C12.7338 12.605 13.0329 11.7665 13.5803 11.0968C14.1277 10.427 14.8899 9.96711 15.7376 9.79497V8.21997H17.2376V9.79497C18.084 9.96904 18.8446 10.4296 19.3911 11.099C19.9375 11.7685 20.2365 12.6058 20.2376 13.47H18.7376C18.7357 13.0063 18.5905 12.5545 18.322 12.1764C18.0535 11.7984 17.6748 11.5125 17.2376 11.358V15.795C18.084 15.969 18.8446 16.4296 19.3911 17.099C19.9375 17.7685 20.2365 18.6058 20.2376 19.47Z" fill="url(#paint3_linear_41_51)"/>
<path d="M33.7376 16.47C31.8092 16.47 29.9242 17.0418 28.3208 18.1131C26.7174 19.1845 25.4677 20.7072 24.7298 22.4888C23.9918 24.2704 23.7987 26.2308 24.1749 28.1221C24.5511 30.0134 25.4797 31.7507 26.8433 33.1143C28.2069 34.4778 29.9442 35.4064 31.8355 35.7826C33.7268 36.1588 35.6872 35.9657 37.4688 35.2278C39.2503 34.4898 40.7731 33.2402 41.8444 31.6368C42.9158 30.0334 43.4876 28.1483 43.4876 26.22C43.4846 23.635 42.4564 21.1568 40.6286 19.329C38.8008 17.5011 36.3225 16.4729 33.7376 16.47ZM39.2719 23.6857L32.0178 30.9397C31.8497 31.1079 31.6501 31.2412 31.4305 31.3322C31.2108 31.4232 30.9754 31.47 30.7376 31.47C30.4998 31.47 30.2644 31.4232 30.0447 31.3322C29.8251 31.2412 29.6255 31.1079 29.4573 30.9397L27.4533 28.9357C27.155 28.6374 26.9874 28.2327 26.9874 27.8107C26.9874 27.3888 27.155 26.9841 27.4533 26.6857C27.7517 26.3874 28.1564 26.2197 28.5783 26.2197C29.0003 26.2197 29.405 26.3874 29.7033 26.6857L30.7376 27.72L37.0219 21.4357C37.1696 21.288 37.345 21.1708 37.538 21.0908C37.731 21.0109 37.9379 20.9697 38.1469 20.9697C38.3558 20.9697 38.5627 21.0109 38.7557 21.0908C38.9487 21.1708 39.1241 21.288 39.2719 21.4357C39.4196 21.5835 39.5368 21.7588 39.6167 21.9519C39.6967 22.1449 39.7378 22.3518 39.7378 22.5607C39.7378 22.7697 39.6967 22.9765 39.6167 23.1696C39.5368 23.3626 39.4196 23.538 39.2719 23.6857Z" fill="url(#paint4_linear_41_51)"/>
<defs>
<linearGradient id="paint0_linear_41_51" x1="0" y1="0" x2="32.97" y2="32.9043" gradientUnits="userSpaceOnUse">
<stop stop-color="#2E6608"/>
<stop offset="1" stop-color="#3F8A0E"/>
</linearGradient>
<linearGradient id="paint1_linear_41_51" x1="17.2376" y1="17.3579" x2="19.9026" y2="18.3047" gradientUnits="userSpaceOnUse">
<stop stop-color="#2E6608"/>
<stop offset="1" stop-color="#3F8A0E"/>
</linearGradient>
<linearGradient id="paint2_linear_41_51" x1="14.2376" y1="11.3579" x2="16.9016" y2="12.304" gradientUnits="userSpaceOnUse">
<stop stop-color="#2E6608"/>
<stop offset="1" stop-color="#3F8A0E"/>
</linearGradient>
<linearGradient id="paint3_linear_41_51" x1="4.47023" y1="4.46094" x2="28.4793" y2="28.4686" gradientUnits="userSpaceOnUse">
<stop stop-color="#2E6608"/>
<stop offset="1" stop-color="#3F8A0E"/>
</linearGradient>
<linearGradient id="paint4_linear_41_51" x1="23.9876" y1="16.47" x2="43.4876" y2="35.97" gradientUnits="userSpaceOnUse">
<stop stop-color="#2E6608"/>
<stop offset="1" stop-color="#3F8A0E"/>
</linearGradient>
</defs>
</svg>
