<svg width="48" height="48" viewBox="0 0 48 48" fill="none" xmlns="http://www.w3.org/2000/svg">
<path d="M2.25 18.75H12V26.25H2.25V18.75Z" fill="url(#paint0_linear_41_79)"/>
<path d="M29.25 17.25H14.25C13.8358 17.25 13.5 17.5858 13.5 18V27C13.5 27.4142 13.8358 27.75 14.25 27.75H29.25C29.6642 27.75 30 27.4142 30 27V18C30 17.5858 29.6642 17.25 29.25 17.25Z" fill="url(#paint1_linear_41_79)"/>
<path d="M22.5 3C22.5 2.80109 22.421 2.61032 22.2803 2.46967C22.1397 2.32902 21.9489 2.25 21.75 2.25C21.5511 2.25 21.3603 2.32902 21.2197 2.46967C21.079 2.61032 21 2.80109 21 3V3.75H22.5V3Z" fill="url(#paint2_linear_41_79)"/>
<path d="M16.5 15V15.75H27V15C27 14.8011 26.921 14.6103 26.7803 14.4697C26.6397 14.329 26.4489 14.25 26.25 14.25H17.25C17.0511 14.25 16.8603 14.329 16.7197 14.4697C16.579 14.6103 16.5 14.8011 16.5 15Z" fill="url(#paint3_linear_41_79)"/>
<path d="M45 32.25H36C35.5858 32.25 35.25 32.5858 35.25 33V34.5C35.25 34.9142 35.5858 35.25 36 35.25H45C45.4142 35.25 45.75 34.9142 45.75 34.5V33C45.75 32.5858 45.4142 32.25 45 32.25Z" fill="url(#paint4_linear_41_79)"/>
<path d="M21 9.75H22.5V12.75H21V9.75Z" fill="url(#paint5_linear_41_79)"/>
<path d="M36.75 28.5V30.75H44.25V27C44.2474 24.8128 43.3774 22.7158 41.8308 21.1692C40.2842 19.6226 38.1872 18.7526 36 18.75H31.5V26.25H34.5C35.0967 26.25 35.669 26.4871 36.091 26.909C36.5129 27.331 36.75 27.9033 36.75 28.5Z" fill="url(#paint6_linear_41_79)"/>
<path d="M29.25 5.25H14.25C13.8522 5.25 13.4706 5.40804 13.1893 5.68934C12.908 5.97064 12.75 6.35218 12.75 6.75C12.75 7.14782 12.908 7.52936 13.1893 7.81066C13.4706 8.09196 13.8522 8.25 14.25 8.25H29.25C29.6478 8.25 30.0294 8.09196 30.3107 7.81066C30.592 7.52936 30.75 7.14782 30.75 6.75C30.75 6.35218 30.592 5.97064 30.3107 5.68934C30.0294 5.40804 29.6478 5.25 29.25 5.25Z" fill="url(#paint7_linear_41_79)"/>
<path d="M40.5 39L39.0217 41.4637C38.5168 42.3054 38.2501 43.2685 38.25 44.25C38.25 44.8467 38.4871 45.419 38.909 45.841C39.331 46.2629 39.9033 46.5 40.5 46.5C41.0967 46.5 41.669 46.2629 42.091 45.841C42.5129 45.419 42.75 44.8467 42.75 44.25C42.7499 43.2685 42.4832 42.3054 41.9783 41.4637L40.5 39Z" fill="url(#paint8_linear_41_79)"/>
<defs>
<linearGradient id="paint0_linear_41_79" x1="2.25" y1="18.75" x2="9.49907" y2="28.1738" gradientUnits="userSpaceOnUse">
<stop stop-color="#2E6608"/>
<stop offset="1" stop-color="#3F8A0E"/>
</linearGradient>
<linearGradient id="paint1_linear_41_79" x1="13.5" y1="17.25" x2="23.0118" y2="32.1971" gradientUnits="userSpaceOnUse">
<stop stop-color="#2E6608"/>
<stop offset="1" stop-color="#3F8A0E"/>
</linearGradient>
<linearGradient id="paint2_linear_41_79" x1="21" y1="2.25" x2="22.5" y2="3.75" gradientUnits="userSpaceOnUse">
<stop stop-color="#2E6608"/>
<stop offset="1" stop-color="#3F8A0E"/>
</linearGradient>
<linearGradient id="paint3_linear_41_79" x1="16.5" y1="14.25" x2="16.92" y2="17.19" gradientUnits="userSpaceOnUse">
<stop stop-color="#2E6608"/>
<stop offset="1" stop-color="#3F8A0E"/>
</linearGradient>
<linearGradient id="paint4_linear_41_79" x1="35.25" y1="32.25" x2="36.8349" y2="37.7972" gradientUnits="userSpaceOnUse">
<stop stop-color="#2E6608"/>
<stop offset="1" stop-color="#3F8A0E"/>
</linearGradient>
<linearGradient id="paint5_linear_41_79" x1="21" y1="9.75" x2="23.4" y2="10.95" gradientUnits="userSpaceOnUse">
<stop stop-color="#2E6608"/>
<stop offset="1" stop-color="#3F8A0E"/>
</linearGradient>
<linearGradient id="paint6_linear_41_79" x1="31.5" y1="18.75" x2="43.478" y2="31.4766" gradientUnits="userSpaceOnUse">
<stop stop-color="#2E6608"/>
<stop offset="1" stop-color="#3F8A0E"/>
</linearGradient>
<linearGradient id="paint7_linear_41_79" x1="12.75" y1="5.25" x2="13.723" y2="11.0878" gradientUnits="userSpaceOnUse">
<stop stop-color="#2E6608"/>
<stop offset="1" stop-color="#3F8A0E"/>
</linearGradient>
<linearGradient id="paint8_linear_41_79" x1="38.25" y1="39" x2="44.8676" y2="42.9706" gradientUnits="userSpaceOnUse">
<stop stop-color="#2E6608"/>
<stop offset="1" stop-color="#3F8A0E"/>
</linearGradient>
</defs>
</svg>
