<svg width="24" height="24" viewBox="0 0 24 24" fill="none" xmlns="http://www.w3.org/2000/svg">
<g clip-path="url(#clip0_59_723)">
<path d="M20.652 18.266C20.652 18.266 22.5 20.5 22.5 21.5C22.5 22.14 22.256 22.78 21.768 23.268C21.28 23.756 20.64 24 20 24C19.36 24 18.72 23.756 18.232 23.268C17.744 22.78 17.5 22.14 17.5 21.5C17.5 20.5 19.348 18.266 19.348 18.266C19.71 17.912 20.29 17.912 20.652 18.266ZM15 2C15.552 2 16 1.553 16 1C16 0.447 15.552 0 15 0H5C4.448 0 4 0.447 4 1C4 1.553 4.448 2 5 2H9V5H1C0.448 5 0 5.447 0 6V12C0 12.553 0.448 13 1 13H11V2H15ZM15 5H13V13H15C15.551 13 16 13.448 16 14C16 15.103 16.897 16 18 16H22C23.103 16 24 15.103 24 14C24 9.037 19.962 5 15 5Z" fill="url(#paint0_linear_59_723)"/>
</g>
<defs>
<linearGradient id="paint0_linear_59_723" x1="0" y1="0" x2="24" y2="24" gradientUnits="userSpaceOnUse">
<stop stop-color="#2E6608"/>
<stop offset="1" stop-color="#3F8A0E"/>
</linearGradient>
<clipPath id="clip0_59_723">
<rect width="24" height="24" fill="white"/>
</clipPath>
</defs>
</svg>
