<svg width="64" height="64" viewBox="0 0 64 64" fill="none" xmlns="http://www.w3.org/2000/svg">
<rect width="64" height="64" rx="24" fill="url(#paint0_linear_140_1157)" fill-opacity="0.2"/>
<g clip-path="url(#clip0_140_1157)">
<path d="M27.0002 29.3334C22.7727 29.3334 19.3335 32.7726 19.3335 37C19.3335 41.2275 22.7727 44.6667 27.0002 44.6667C31.2277 44.6667 34.6668 41.2275 34.6668 37C34.6668 32.7726 31.2277 29.3334 27.0002 29.3334ZM32.7614 40.5276C31.7066 41.1689 30.498 41.5098 29.2551 41.5098C25.525 41.5098 22.4904 38.4752 22.4904 34.7451C22.4904 33.5022 22.8313 32.2936 23.4721 31.2392C23.6453 31.1328 23.823 31.034 24.0061 30.9434C23.9019 31.4503 23.8433 31.9666 23.8433 32.4902C23.8433 36.7177 27.2825 40.1569 31.51 40.1569C32.0336 40.1569 32.5504 40.0983 33.0573 39.9941C32.9662 40.1767 32.8679 40.3544 32.7614 40.5276ZM25.0402 30.5271C25.3829 30.4229 25.7383 30.3503 26.1018 30.3021C26.1379 34.4759 29.5243 37.8623 33.6981 37.8984C33.6494 38.2614 33.5768 38.6173 33.4731 38.96C32.839 39.1521 32.1806 39.2549 31.51 39.2549C27.7799 39.2549 24.7453 36.2203 24.7453 32.4902C24.7453 31.8201 24.8476 31.1612 25.0402 30.5271ZM33.7649 37C30.0348 37 27.0002 33.9654 27.0002 30.2353C30.7302 30.2353 33.7649 33.27 33.7649 37ZM20.2355 37C20.2355 35.3021 20.8686 33.7525 21.9054 32.5637C21.6971 33.2668 21.5884 34.0006 21.5884 34.7451C21.5884 38.9726 25.0276 42.4118 29.2551 42.4118C29.9996 42.4118 30.7334 42.3031 31.4365 42.0948C30.2477 43.1316 28.6981 43.7647 27.0002 43.7647C23.2701 43.7647 20.2355 40.7301 20.2355 37Z" fill="#2E3033" stroke="#2E3033" stroke-width="0.5"/>
<path d="M37.454 16.5C34.448 16.5 31.622 17.6705 29.497 19.796L20.646 28.647L20.6535 28.6545C18.1355 30.5745 16.5 33.596 16.5 37C16.5 42.7895 21.21 47.5 27 47.5C30.999 47.5 34.481 45.2515 36.254 41.9535L44.558 33.6495C46.455 31.7525 47.5 29.2295 47.5 26.546C47.5 21.0065 42.9935 16.5 37.454 16.5ZM27 46.5C21.7615 46.5 17.5 42.2385 17.5 37C17.5 31.7615 21.7615 27.5 27 27.5C32.2385 27.5 36.5 31.7615 36.5 37C36.5 42.2385 32.2385 46.5 27 46.5ZM43.8505 32.9425L37.1495 39.643C37.3705 38.797 37.5 37.9145 37.5 37C37.5 31.2105 32.79 26.5 27 26.5C25.8275 26.5 24.703 26.7015 23.649 27.058L30.204 20.503C32.1405 18.5665 34.7155 17.5 37.454 17.5C42.442 17.5 46.5 21.558 46.5 26.546C46.5 28.9625 45.559 31.234 43.8505 32.9425Z" fill="#2E3033" stroke="#2E3033" stroke-width="0.5"/>
</g>
<defs>
<linearGradient id="paint0_linear_140_1157" x1="0" y1="0" x2="64" y2="64" gradientUnits="userSpaceOnUse">
<stop stop-color="#4EA512"/>
<stop offset="1" stop-color="#6FCB2A"/>
</linearGradient>
<clipPath id="clip0_140_1157">
<rect width="32" height="32" fill="white" transform="translate(16 16)"/>
</clipPath>
</defs>
</svg>
