<svg width="24" height="24" viewBox="0 0 24 24" fill="none" xmlns="http://www.w3.org/2000/svg">
<g clip-path="url(#clip0_59_704)">
<path d="M9 13H15V17C15 20.859 11.859 24 8 24C4.141 24 1 20.859 1 17V14C0.447 14 0 13.553 0 13C0 12.447 0.447 12 1 12H7C7.553 12 8 12.447 8 13C8 13.553 7.553 14 7 14V17C7 17.552 7.448 18 8 18C8.552 18 9 17.552 9 17V13ZM3 7.377V9C3 9.553 3.447 10 4 10C4.553 10 5 9.553 5 9V7.369C6.723 6.923 8 5.36 8 3.5C8 2.256 7.428 1.146 6.535 0.413C6.124 0.076 5.5 0.379 5.5 0.911V2.5C5.5 3.328 4.828 4 4 4C3.172 4 2.5 3.328 2.5 2.5V0.91C2.5 0.381 1.88 0.074 1.47 0.41C0.319 1.35 -0.299 2.916 0.144 4.587C0.506 5.952 1.628 7.041 3 7.377ZM21.34 17.636C21.009 17.234 20.521 17.001 20 17C19.44 16.996 18.924 17.269 18.589 17.713C17.918 18.52 17 19.625 17 21C17 22.654 18.346 24 20 24C21.654 24 23 22.654 23 21C22.993 19.596 22.041 18.498 21.34 17.636ZM23 13V7C23 3.141 19.859 0 16 0C12.141 0 9 3.141 9 7V11H15V7C15 6.448 15.448 6 16 6C16.552 6 17 6.448 17 7V13C16.447 13 16 13.447 16 14C16 14.553 16.447 15 17 15H23C23.553 15 24 14.553 24 14C24 13.447 23.553 13 23 13Z" fill="url(#paint0_linear_59_704)"/>
</g>
<defs>
<linearGradient id="paint0_linear_59_704" x1="0" y1="0" x2="24" y2="24" gradientUnits="userSpaceOnUse">
<stop stop-color="#2E6608"/>
<stop offset="1" stop-color="#3F8A0E"/>
</linearGradient>
<clipPath id="clip0_59_704">
<rect width="24" height="24" fill="white"/>
</clipPath>
</defs>
</svg>
