<svg width="80" height="80" viewBox="0 0 80 80" fill="none" xmlns="http://www.w3.org/2000/svg">
<rect x="1" y="1" width="78" height="78" rx="38" fill="url(#paint0_linear_32_31)"/>
<rect x="1" y="1" width="78" height="78" rx="38" stroke="url(#paint1_linear_32_31)" stroke-width="2"/>
<path d="M47.7872 34.408L43.7888 32.1952C41.4168 30.8832 38.5856 30.8824 36.2104 32.1952L32.212 34.408C31.9576 34.5488 31.7992 34.8168 31.7992 35.108V36.5744C31.7992 39.9488 32.9376 43.132 35.0048 45.54C36.4328 47.2032 38.0432 48.2856 39.7912 48.7568C39.8592 48.7744 39.9288 48.784 39.9992 48.784C40.0696 48.784 40.1392 48.7744 40.2072 48.7568C41.956 48.2856 43.5656 47.204 44.9936 45.54C47.0608 43.132 48.1992 39.9488 48.1992 36.5744V35.108C48.2 34.8168 48.0424 34.5488 47.7872 34.408ZM46.6 36.5744C46.6 39.5656 45.5984 42.38 43.7808 44.4976C42.6256 45.844 41.3544 46.736 40 47.1512C38.6464 46.7352 37.3752 45.8432 36.2192 44.4976C34.4016 42.38 33.4 39.5656 33.4 36.5744V35.58L36.9856 33.596C38.8728 32.552 41.128 32.552 43.0136 33.596L46.5992 35.58L46.6 36.5744Z" fill="white" stroke="white" stroke-width="0.5"/>
<path d="M38.6552 40.6408L37.3616 39.3472C37.0488 39.0344 36.5432 39.0344 36.2304 39.3472C35.9176 39.66 35.9176 40.1656 36.2304 40.4784L38.0896 42.3376C38.2456 42.4936 38.4504 42.572 38.6552 42.572C38.86 42.572 39.0648 42.4936 39.2208 42.3376L43.7696 37.7896C44.0824 37.4768 44.0824 36.9712 43.7696 36.6584C43.4568 36.3456 42.9512 36.3456 42.6384 36.6584L38.6552 40.6408Z" fill="white" stroke="white" stroke-width="0.5"/>
<path d="M54.1424 25.8584C54.1296 25.8456 54.1136 25.8416 54.1 25.8304C50.4816 22.2296 45.4968 20 40 20C34.5048 20 29.5208 22.2288 25.9024 25.828C25.8888 25.84 25.8712 25.8448 25.8576 25.8576C25.844 25.8704 25.84 25.8888 25.828 25.9024C22.2288 29.5208 20 34.5048 20 40C20 45.4952 22.2288 50.4792 25.828 54.0976C25.84 54.1112 25.8448 54.1288 25.8576 54.1424C25.8704 54.156 25.8888 54.16 25.9024 54.172C29.5208 57.7712 34.5048 60 40 60C45.4952 60 50.4792 57.7712 54.0976 54.172C54.1112 54.16 54.1288 54.1552 54.1424 54.1424C54.156 54.1296 54.16 54.1112 54.172 54.0976C57.7712 50.4792 60 45.4952 60 40C60 34.504 57.7712 29.5192 54.1704 25.9008C54.1584 25.888 54.1544 25.8712 54.1424 25.8584ZM53.5568 52.4256L50.672 49.5416C52.776 47.1904 54.1112 44.1496 54.2976 40.8H58.3792C58.1872 45.2712 56.3936 49.3336 53.5568 52.4256ZM21.62 40.8H25.7016C25.888 44.1496 27.2232 47.1904 29.3264 49.5416L26.4424 52.4256C23.6064 49.3336 21.8128 45.2712 21.62 40.8ZM26.4432 27.5744L29.3272 30.4592C27.2232 32.8096 25.8888 35.8504 25.7024 39.2H21.62C21.8128 34.7288 23.6064 30.6672 26.4432 27.5744ZM40 52.7384C32.976 52.7384 27.2616 47.024 27.2616 40C27.2616 32.976 32.976 27.2616 40 27.2616C47.024 27.2616 52.7384 32.976 52.7384 40C52.7384 47.024 47.024 52.7384 40 52.7384ZM49.5416 29.328C47.1904 27.224 44.1496 25.8888 40.8 25.7024V21.62C45.2712 21.812 49.3336 23.6064 52.4264 26.4432L49.5416 29.328ZM39.2 25.7024C35.8496 25.8888 32.8088 27.224 30.4584 29.328L27.5744 26.4432C30.6664 23.6064 34.7288 21.8128 39.2 21.62V25.7024ZM30.4584 50.6728C32.8088 52.7768 35.8496 54.112 39.2 54.2976V58.3792C34.7288 58.1872 30.6664 56.3936 27.5744 53.5568L30.4584 50.6728ZM40.8 54.2976C44.1496 54.1112 47.1904 52.7768 49.5408 50.6728L52.4256 53.5568C49.3328 56.3936 45.2712 58.1872 40.8 58.3792V54.2976ZM54.2976 39.2C54.1112 35.8504 52.7768 32.8096 50.6728 30.4592L53.5568 27.5752C56.3936 30.668 58.1872 34.7296 58.3792 39.2008L54.2976 39.2Z" fill="white" stroke="white" stroke-width="0.5"/>
<defs>
<linearGradient id="paint0_linear_32_31" x1="0" y1="0" x2="80" y2="80" gradientUnits="userSpaceOnUse">
<stop stop-color="#4EA512"/>
<stop offset="1" stop-color="#6FCB2A"/>
</linearGradient>
<linearGradient id="paint1_linear_32_31" x1="0" y1="0" x2="80" y2="80" gradientUnits="userSpaceOnUse">
<stop stop-color="#4EA512"/>
<stop offset="1" stop-color="#6FCB2A"/>
</linearGradient>
</defs>
</svg>
