<svg width="64" height="64" viewBox="0 0 64 64" fill="none" xmlns="http://www.w3.org/2000/svg">
<rect width="64" height="64" rx="24" fill="url(#paint0_linear_140_509)" fill-opacity="0.2"/>
<path d="M31.9998 16C28.4648 16.0039 25.0757 17.4099 22.576 19.9095C20.0764 22.4092 18.6704 25.7983 18.6665 29.3333C18.6665 36.376 29.8665 46.044 31.1385 47.124L31.9998 47.852L32.8612 47.124C34.1332 46.044 45.3332 36.376 45.3332 29.3333C45.3293 25.7983 43.9233 22.4092 41.4236 19.9095C38.924 17.4099 35.5349 16.0039 31.9998 16ZM31.9998 36C30.6813 36 29.3924 35.609 28.296 34.8765C27.1997 34.1439 26.3452 33.1027 25.8406 31.8846C25.3361 30.6664 25.204 29.3259 25.4613 28.0327C25.7185 26.7395 26.3534 25.5516 27.2858 24.6193C28.2181 23.6869 29.406 23.052 30.6992 22.7948C31.9924 22.5375 33.3329 22.6696 34.5511 23.1741C35.7692 23.6787 36.8104 24.5332 37.543 25.6295C38.2755 26.7259 38.6665 28.0148 38.6665 29.3333C38.6644 31.1008 37.9613 32.7953 36.7115 34.045C35.4618 35.2948 33.7673 35.9979 31.9998 36Z" fill="url(#paint1_linear_140_509)"/>
<path d="M32 33.3335C34.2091 33.3335 36 31.5426 36 29.3335C36 27.1244 34.2091 25.3335 32 25.3335C29.7909 25.3335 28 27.1244 28 29.3335C28 31.5426 29.7909 33.3335 32 33.3335Z" fill="url(#paint2_linear_140_509)"/>
<defs>
<linearGradient id="paint0_linear_140_509" x1="0" y1="0" x2="64" y2="64" gradientUnits="userSpaceOnUse">
<stop stop-color="#4EA512"/>
<stop offset="1" stop-color="#6FCB2A"/>
</linearGradient>
<linearGradient id="paint1_linear_140_509" x1="18.6665" y1="16" x2="50.0222" y2="42.2512" gradientUnits="userSpaceOnUse">
<stop stop-color="#4EA512"/>
<stop offset="1" stop-color="#6FCB2A"/>
</linearGradient>
<linearGradient id="paint2_linear_140_509" x1="28" y1="25.3335" x2="36" y2="33.3335" gradientUnits="userSpaceOnUse">
<stop stop-color="#4EA512"/>
<stop offset="1" stop-color="#6FCB2A"/>
</linearGradient>
</defs>
</svg>
