<svg width="64" height="64" viewBox="0 0 64 64" fill="none" xmlns="http://www.w3.org/2000/svg">
<rect width="64.0003" height="64.0003" rx="24" fill="url(#paint0_linear_140_515)" fill-opacity="0.2"/>
<path d="M39.4843 33.1307L47.8376 41.484L43.6096 45.712C42.8727 46.4458 41.9974 47.026 41.0345 47.4187C40.0715 47.8115 39.0402 48.0091 38.0003 48C28.3363 48 16.0003 35.664 16.0003 26C15.9918 24.96 16.1897 23.9286 16.5824 22.9655C16.9751 22.0025 17.5549 21.1269 18.2883 20.3893L22.5163 16.1627L30.8696 24.516L25.3696 30.016C27.0047 33.9017 30.0917 36.9959 33.9736 38.64L39.4843 33.1307ZM45.3336 29.3333H48.0003C47.9964 25.7983 46.5904 22.4092 44.0907 19.9095C41.5911 17.4099 38.202 16.0039 34.6669 16V18.6667C37.4949 18.6698 40.2062 19.7947 42.2059 21.7944C44.2056 23.7941 45.3304 26.5053 45.3336 29.3333ZM40.0003 29.3333H42.6669C42.6648 27.2123 41.8213 25.1787 40.3214 23.6788C38.8216 22.179 36.788 21.3355 34.6669 21.3333V24C36.0814 24 37.438 24.5619 38.4382 25.5621C39.4384 26.5623 40.0003 27.9188 40.0003 29.3333Z" fill="url(#paint1_linear_140_515)"/>
<defs>
<linearGradient id="paint0_linear_140_515" x1="0" y1="0" x2="64.0003" y2="64.0003" gradientUnits="userSpaceOnUse">
<stop stop-color="#4EA512"/>
<stop offset="1" stop-color="#6FCB2A"/>
</linearGradient>
<linearGradient id="paint1_linear_140_515" x1="16" y1="16" x2="48.0003" y2="48.0003" gradientUnits="userSpaceOnUse">
<stop stop-color="#4EA512"/>
<stop offset="1" stop-color="#6FCB2A"/>
</linearGradient>
</defs>
</svg>
